<svg xmlns="http://www.w3.org/2000/svg" viewBox="0 0 960 400" width="960" height="400" role="img" aria-label="Contribution City: last 53 weeks of GitHub activity as a Night City skyline">
<title>Contribution City: last 53 weeks of GitHub activity as a Night City skyline</title><desc>One building per day. Taller means more contributions. Peak: 200 on 2024-05-30.</desc>
<defs>
  <pattern id="grid" width="40" height="40" patternUnits="userSpaceOnUse">
    <path d="M40 0H0V40" fill="none" stroke="#1a2142" stroke-width="1" opacity=".5"/>
  </pattern>
  <pattern id="scan" width="6" height="6" patternUnits="userSpaceOnUse">
    <rect width="6" height="1" fill="#000" opacity=".12"/>
  </pattern>
  <linearGradient id="bgGrad" x1="0" y1="0" x2="0" y2="1">
    <stop offset="0" stop-color="#0a0814"/>
    <stop offset="1" stop-color="#05040a"/>
  </linearGradient>
  <radialGradient id="vignette" cx="50%" cy="45%" r="72%">
    <stop offset="70%" stop-color="#000" stop-opacity="0"/>
    <stop offset="100%" stop-color="#000" stop-opacity=".22"/>
  </radialGradient>
  <filter id="glow" filterUnits="userSpaceOnUse" x="-60" y="-120" width="1080" height="1600">
    <feGaussianBlur in="SourceGraphic" stdDeviation="3" result="b"/>
    <feMerge><feMergeNode in="b"/><feMergeNode in="SourceGraphic"/></feMerge>
  </filter>
  <filter id="glowL" filterUnits="userSpaceOnUse" x="-80" y="-140" width="1120" height="1640">
    <feGaussianBlur in="SourceGraphic" stdDeviation="7" result="b"/>
    <feMerge><feMergeNode in="b"/><feMergeNode in="b"/><feMergeNode in="SourceGraphic"/></feMerge>
  </filter>
  <filter id="glowS" x="-60%" y="-60%" width="220%" height="220%">
    <feGaussianBlur in="SourceGraphic" stdDeviation="1.5" result="b"/>
    <feMerge><feMergeNode in="b"/><feMergeNode in="SourceGraphic"/></feMerge>
  </filter>
  <clipPath id="plateClip"><polygon points="74,198 922,198 883,280 35,280"/></clipPath>
  <radialGradient id="moonHalo"><stop offset="0" stop-color="#c48bff" stop-opacity=".42"/><stop offset="1" stop-color="#c48bff" stop-opacity="0"/></radialGradient>
  <linearGradient id="skyGrad" x1="0" y1="0" x2="0" y2="1">
    <stop offset="0" stop-color="#05040f"/>
    <stop offset=".5" stop-color="#160a2c"/>
    <stop offset=".82" stop-color="#3a1238"/>
    <stop offset="1" stop-color="#6a1c2e"/>
  </linearGradient>
  <linearGradient id="plateGrad" x1="0" y1="0" x2="0" y2="1">
    <stop offset="0" stop-color="#10182e"/>
    <stop offset="1" stop-color="#070b16"/>
  </linearGradient>
  <linearGradient id="fog" x1="0" y1="0" x2="0" y2="1">
    <stop offset="0" stop-color="#6a1c2e" stop-opacity="0"/>
    <stop offset="1" stop-color="#0a0610" stop-opacity=".55"/>
  </linearGradient>
  <linearGradient id="sweep" x1="0" y1="0" x2="1" y2="0">
    <stop offset="0" stop-color="#00e8ff" stop-opacity="0"/>
    <stop offset=".5" stop-color="#00e8ff" stop-opacity=".26"/>
    <stop offset="1" stop-color="#00e8ff" stop-opacity="0"/>
  </linearGradient>
  <clipPath id="win"><path d="M0 0 V0 H960 V400 V400 H0 Z"/></clipPath></defs>
<style>
  text{font-family:'JetBrains Mono','Fira Code',Consolas,'SF Mono','Malgun Gothic','Apple SD Gothic Neo','Noto Sans KR','NanumGothic','DejaVu Sans Mono','Courier New',monospace;}
  .blink{animation:blink 1.1s steps(1) infinite}
  @keyframes blink{50%{opacity:0}}
  .pulse{animation:pulse 2.4s ease-in-out infinite}
  @keyframes pulse{0%,100%{opacity:1}50%{opacity:.35}}
  .tw1{animation:tw 3.2s ease-in-out infinite}
  .tw2{animation:tw 4.6s ease-in-out -1.3s infinite}
  .tw3{animation:tw 2.6s ease-in-out -.7s infinite}
  @keyframes tw{0%,100%{opacity:.85}50%{opacity:.12}}
  .fl1{animation:fl 2.8s steps(1) infinite}
  .fl2{animation:fl 3.9s steps(1) -1s infinite}
  .fl3{animation:fl 5.1s steps(1) -2.2s infinite}
  @keyframes fl{0%{opacity:1}40%{opacity:.12}46%{opacity:1}70%{opacity:.12}74%{opacity:1}}
  .beacon{animation:bc 1.6s steps(1) infinite}
  .b2{animation-delay:-.5s}.b3{animation-delay:-1.1s}
  .beaconR{animation:bc 1.2s steps(1) infinite}
  .beaconW{animation:bc 2.4s steps(1) -.6s infinite}
  @keyframes bc{0%{opacity:1}50%{opacity:.12}}
  .plane{animation:fly 36s linear infinite}
  @keyframes fly{0%{transform:translateX(-70px)}100%{transform:translateX(1040px)}}</style>

<g clip-path="url(#win)">
  <rect width="960" height="400" fill="url(#skyGrad)"/>
  
<circle cx="848" cy="108" r="78" fill="url(#moonHalo)"/>
<circle cx="848" cy="108" r="18" fill="#f4e8ff"/>
<circle cx="840" cy="102" r="3.2" fill="#d4c4ee"/><circle cx="856" cy="114" r="2.2" fill="#d4c4ee"/>
<circle class="tw1" cx="782" cy="150" r="1" fill="#d7e7ff"/><circle class="tw2" cx="557" cy="162" r="1.6" fill="#d7e7ff"/><circle class="tw3" cx="612" cy="155" r="1" fill="#d7e7ff"/><circle class="tw1" cx="344" cy="199" r="1" fill="#d7e7ff"/><circle class="tw2" cx="559" cy="131" r="1" fill="#d7e7ff"/><circle class="tw3" cx="55" cy="134" r="1" fill="#d7e7ff"/><circle class="tw1" cx="442" cy="69" r="1" fill="#d7e7ff"/><circle class="tw2" cx="163" cy="59" r="1" fill="#d7e7ff"/><circle class="tw3" cx="212" cy="197" r="1" fill="#d7e7ff"/><circle class="tw1" cx="812" cy="104" r="1.6" fill="#d7e7ff"/><circle class="tw2" cx="657" cy="78" r="1" fill="#d7e7ff"/><circle class="tw3" cx="236" cy="68" r="1" fill="#d7e7ff"/><circle class="tw1" cx="637" cy="202" r="1" fill="#d7e7ff"/><circle class="tw2" cx="537" cy="80" r="1" fill="#d7e7ff"/><circle class="tw3" cx="753" cy="115" r="1.6" fill="#d7e7ff"/><circle class="tw1" cx="370" cy="172" r="1" fill="#d7e7ff"/><circle class="tw2" cx="884" cy="101" r="1" fill="#d7e7ff"/><circle class="tw3" cx="471" cy="170" r="1" fill="#d7e7ff"/><circle class="tw1" cx="494" cy="76" r="1.6" fill="#d7e7ff"/><circle class="tw2" cx="296" cy="89" r="1" fill="#d7e7ff"/><circle class="tw3" cx="376" cy="178" r="1" fill="#d7e7ff"/><circle class="tw1" cx="259" cy="104" r="1" fill="#d7e7ff"/><circle class="tw2" cx="34" cy="65" r="1.6" fill="#d7e7ff"/><circle class="tw3" cx="476" cy="174" r="1" fill="#d7e7ff"/><circle class="tw1" cx="875" cy="58" r="1.6" fill="#d7e7ff"/><circle class="tw2" cx="190" cy="155" r="1" fill="#d7e7ff"/><circle class="tw3" cx="112" cy="53" r="1" fill="#d7e7ff"/><circle class="tw1" cx="367" cy="93" r="1" fill="#d7e7ff"/><circle class="tw2" cx="723" cy="167" r="1" fill="#d7e7ff"/><circle class="tw3" cx="35" cy="88" r="1" fill="#d7e7ff"/><circle class="tw1" cx="147" cy="200" r="1" fill="#d7e7ff"/><circle class="tw2" cx="787" cy="181" r="1" fill="#d7e7ff"/><circle class="tw3" cx="270" cy="99" r="1" fill="#d7e7ff"/><circle class="tw1" cx="315" cy="197" r="1.6" fill="#d7e7ff"/><circle class="tw2" cx="708" cy="147" r="1" fill="#d7e7ff"/><circle class="tw3" cx="292" cy="120" r="1.6" fill="#d7e7ff"/><circle class="tw1" cx="375" cy="126" r="1.6" fill="#d7e7ff"/><circle class="tw2" cx="463" cy="115" r="1" fill="#d7e7ff"/><circle class="tw3" cx="495" cy="53" r="1" fill="#d7e7ff"/><circle class="tw1" cx="54" cy="136" r="1" fill="#d7e7ff"/><circle class="tw2" cx="115" cy="60" r="1" fill="#d7e7ff"/><circle class="tw3" cx="156" cy="188" r="1" fill="#d7e7ff"/><circle class="tw1" cx="727" cy="95" r="1" fill="#d7e7ff"/><circle class="tw2" cx="525" cy="187" r="1" fill="#d7e7ff"/><circle class="tw3" cx="490" cy="71" r="1" fill="#d7e7ff"/><circle class="tw1" cx="416" cy="115" r="1" fill="#d7e7ff"/><circle class="tw2" cx="264" cy="100" r="1" fill="#d7e7ff"/><circle class="tw3" cx="395" cy="110" r="1" fill="#d7e7ff"/><circle class="tw1" cx="306" cy="193" r="1.6" fill="#d7e7ff"/><circle class="tw2" cx="836" cy="92" r="1" fill="#d7e7ff"/><circle class="tw3" cx="58" cy="115" r="1" fill="#d7e7ff"/><circle class="tw1" cx="101" cy="177" r="1" fill="#d7e7ff"/>
<path d="M0 224V196h35V168h43V143h24V186h29V178h27V183h44V193h30V141h31V173h17V141h40V196h29V176h30V140h30V133h19V148h44V151h19V128h34V134h37V182h35V132h24V168h40V190h34V163h43V135h25V131h33V140h38V129h31V174h33V138h21V154h18V197h36V224Z" fill="#080614" opacity=".92"/>
<path d="M0 224V196h35V168h43V143h24V186h29V178h27V183h44V193h30V141h31V173h17V141h40V196h29V176h30V140h30V133h19V148h44V151h19V128h34V134h37V182h35V132h24V168h40V190h34V163h43V135h25V131h33V140h38V129h31V174h33V138h21V154h18V197h36V224Z" fill="none" stroke="#ff2d95" stroke-opacity=".16"/>
<line class="rain" x1="345" y1="194" x2="341" y2="206" stroke="#9ad8ff" stroke-opacity=".22">
      <animate attributeName="y1" values="194;284" dur="1.81s" begin="0.98s" repeatCount="indefinite"/>
      <animate attributeName="y2" values="206;296" dur="1.81s" begin="0.98s" repeatCount="indefinite"/>
      <animate attributeName="x1" values="345;327" dur="1.81s" begin="0.98s" repeatCount="indefinite"/>
      <animate attributeName="x2" values="341;323" dur="1.81s" begin="0.98s" repeatCount="indefinite"/>
    </line><line class="rain" x1="591" y1="166" x2="587" y2="182" stroke="#9ad8ff" stroke-opacity=".22">
      <animate attributeName="y1" values="166;256" dur="1.96s" begin="0.57s" repeatCount="indefinite"/>
      <animate attributeName="y2" values="182;272" dur="1.96s" begin="0.57s" repeatCount="indefinite"/>
      <animate attributeName="x1" values="591;573" dur="1.96s" begin="0.57s" repeatCount="indefinite"/>
      <animate attributeName="x2" values="587;569" dur="1.96s" begin="0.57s" repeatCount="indefinite"/>
    </line><line class="rain" x1="904" y1="53" x2="900" y2="76" stroke="#9ad8ff" stroke-opacity=".22">
      <animate attributeName="y1" values="53;143" dur="2.00s" begin="0.89s" repeatCount="indefinite"/>
      <animate attributeName="y2" values="76;166" dur="2.00s" begin="0.89s" repeatCount="indefinite"/>
      <animate attributeName="x1" values="904;886" dur="2.00s" begin="0.89s" repeatCount="indefinite"/>
      <animate attributeName="x2" values="900;882" dur="2.00s" begin="0.89s" repeatCount="indefinite"/>
    </line><line class="rain" x1="729" y1="168" x2="725" y2="186" stroke="#9ad8ff" stroke-opacity=".22">
      <animate attributeName="y1" values="168;258" dur="2.50s" begin="1.48s" repeatCount="indefinite"/>
      <animate attributeName="y2" values="186;276" dur="2.50s" begin="1.48s" repeatCount="indefinite"/>
      <animate attributeName="x1" values="729;711" dur="2.50s" begin="1.48s" repeatCount="indefinite"/>
      <animate attributeName="x2" values="725;707" dur="2.50s" begin="1.48s" repeatCount="indefinite"/>
    </line><line class="rain" x1="366" y1="123" x2="362" y2="142" stroke="#9ad8ff" stroke-opacity=".22">
      <animate attributeName="y1" values="123;213" dur="2.03s" begin="0.56s" repeatCount="indefinite"/>
      <animate attributeName="y2" values="142;232" dur="2.03s" begin="0.56s" repeatCount="indefinite"/>
      <animate attributeName="x1" values="366;348" dur="2.03s" begin="0.56s" repeatCount="indefinite"/>
      <animate attributeName="x2" values="362;344" dur="2.03s" begin="0.56s" repeatCount="indefinite"/>
    </line><line class="rain" x1="456" y1="194" x2="452" y2="216" stroke="#9ad8ff" stroke-opacity=".22">
      <animate attributeName="y1" values="194;284" dur="1.75s" begin="1.61s" repeatCount="indefinite"/>
      <animate attributeName="y2" values="216;306" dur="1.75s" begin="1.61s" repeatCount="indefinite"/>
      <animate attributeName="x1" values="456;438" dur="1.75s" begin="1.61s" repeatCount="indefinite"/>
      <animate attributeName="x2" values="452;434" dur="1.75s" begin="1.61s" repeatCount="indefinite"/>
    </line><line class="rain" x1="252" y1="114" x2="248" y2="134" stroke="#9ad8ff" stroke-opacity=".22">
      <animate attributeName="y1" values="114;204" dur="1.79s" begin="1.41s" repeatCount="indefinite"/>
      <animate attributeName="y2" values="134;224" dur="1.79s" begin="1.41s" repeatCount="indefinite"/>
      <animate attributeName="x1" values="252;234" dur="1.79s" begin="1.41s" repeatCount="indefinite"/>
      <animate attributeName="x2" values="248;230" dur="1.79s" begin="1.41s" repeatCount="indefinite"/>
    </line><line class="rain" x1="794" y1="103" x2="790" y2="129" stroke="#9ad8ff" stroke-opacity=".22">
      <animate attributeName="y1" values="103;193" dur="2.58s" begin="0.84s" repeatCount="indefinite"/>
      <animate attributeName="y2" values="129;219" dur="2.58s" begin="0.84s" repeatCount="indefinite"/>
      <animate attributeName="x1" values="794;776" dur="2.58s" begin="0.84s" repeatCount="indefinite"/>
      <animate attributeName="x2" values="790;772" dur="2.58s" begin="0.84s" repeatCount="indefinite"/>
    </line><line class="rain" x1="386" y1="171" x2="382" y2="197" stroke="#9ad8ff" stroke-opacity=".22">
      <animate attributeName="y1" values="171;261" dur="2.62s" begin="1.28s" repeatCount="indefinite"/>
      <animate attributeName="y2" values="197;287" dur="2.62s" begin="1.28s" repeatCount="indefinite"/>
      <animate attributeName="x1" values="386;368" dur="2.62s" begin="1.28s" repeatCount="indefinite"/>
      <animate attributeName="x2" values="382;364" dur="2.62s" begin="1.28s" repeatCount="indefinite"/>
    </line><line class="rain" x1="180" y1="124" x2="176" y2="148" stroke="#9ad8ff" stroke-opacity=".22">
      <animate attributeName="y1" values="124;214" dur="2.70s" begin="1.13s" repeatCount="indefinite"/>
      <animate attributeName="y2" values="148;238" dur="2.70s" begin="1.13s" repeatCount="indefinite"/>
      <animate attributeName="x1" values="180;162" dur="2.70s" begin="1.13s" repeatCount="indefinite"/>
      <animate attributeName="x2" values="176;158" dur="2.70s" begin="1.13s" repeatCount="indefinite"/>
    </line><line class="rain" x1="558" y1="60" x2="554" y2="77" stroke="#9ad8ff" stroke-opacity=".22">
      <animate attributeName="y1" values="60;150" dur="2.28s" begin="1.82s" repeatCount="indefinite"/>
      <animate attributeName="y2" values="77;167" dur="2.28s" begin="1.82s" repeatCount="indefinite"/>
      <animate attributeName="x1" values="558;540" dur="2.28s" begin="1.82s" repeatCount="indefinite"/>
      <animate attributeName="x2" values="554;536" dur="2.28s" begin="1.82s" repeatCount="indefinite"/>
    </line><line class="rain" x1="409" y1="96" x2="405" y2="112" stroke="#9ad8ff" stroke-opacity=".22">
      <animate attributeName="y1" values="96;186" dur="2.87s" begin="1.70s" repeatCount="indefinite"/>
      <animate attributeName="y2" values="112;202" dur="2.87s" begin="1.70s" repeatCount="indefinite"/>
      <animate attributeName="x1" values="409;391" dur="2.87s" begin="1.70s" repeatCount="indefinite"/>
      <animate attributeName="x2" values="405;387" dur="2.87s" begin="1.70s" repeatCount="indefinite"/>
    </line><line class="rain" x1="748" y1="178" x2="744" y2="199" stroke="#9ad8ff" stroke-opacity=".22">
      <animate attributeName="y1" values="178;268" dur="2.35s" begin="0.30s" repeatCount="indefinite"/>
      <animate attributeName="y2" values="199;289" dur="2.35s" begin="0.30s" repeatCount="indefinite"/>
      <animate attributeName="x1" values="748;730" dur="2.35s" begin="0.30s" repeatCount="indefinite"/>
      <animate attributeName="x2" values="744;726" dur="2.35s" begin="0.30s" repeatCount="indefinite"/>
    </line><line class="rain" x1="31" y1="109" x2="27" y2="134" stroke="#9ad8ff" stroke-opacity=".22">
      <animate attributeName="y1" values="109;199" dur="2.24s" begin="0.15s" repeatCount="indefinite"/>
      <animate attributeName="y2" values="134;224" dur="2.24s" begin="0.15s" repeatCount="indefinite"/>
      <animate attributeName="x1" values="31;13" dur="2.24s" begin="0.15s" repeatCount="indefinite"/>
      <animate attributeName="x2" values="27;9" dur="2.24s" begin="0.15s" repeatCount="indefinite"/>
    </line><line class="rain" x1="642" y1="76" x2="638" y2="88" stroke="#9ad8ff" stroke-opacity=".22">
      <animate attributeName="y1" values="76;166" dur="2.38s" begin="0.78s" repeatCount="indefinite"/>
      <animate attributeName="y2" values="88;178" dur="2.38s" begin="0.78s" repeatCount="indefinite"/>
      <animate attributeName="x1" values="642;624" dur="2.38s" begin="0.78s" repeatCount="indefinite"/>
      <animate attributeName="x2" values="638;620" dur="2.38s" begin="0.78s" repeatCount="indefinite"/>
    </line><line class="rain" x1="841" y1="64" x2="837" y2="75" stroke="#9ad8ff" stroke-opacity=".22">
      <animate attributeName="y1" values="64;154" dur="2.97s" begin="1.04s" repeatCount="indefinite"/>
      <animate attributeName="y2" values="75;165" dur="2.97s" begin="1.04s" repeatCount="indefinite"/>
      <animate attributeName="x1" values="841;823" dur="2.97s" begin="1.04s" repeatCount="indefinite"/>
      <animate attributeName="x2" values="837;819" dur="2.97s" begin="1.04s" repeatCount="indefinite"/>
    </line><line class="rain" x1="285" y1="115" x2="281" y2="134" stroke="#9ad8ff" stroke-opacity=".22">
      <animate attributeName="y1" values="115;205" dur="2.84s" begin="0.14s" repeatCount="indefinite"/>
      <animate attributeName="y2" values="134;224" dur="2.84s" begin="0.14s" repeatCount="indefinite"/>
      <animate attributeName="x1" values="285;267" dur="2.84s" begin="0.14s" repeatCount="indefinite"/>
      <animate attributeName="x2" values="281;263" dur="2.84s" begin="0.14s" repeatCount="indefinite"/>
    </line><line class="rain" x1="824" y1="147" x2="820" y2="173" stroke="#9ad8ff" stroke-opacity=".22">
      <animate attributeName="y1" values="147;237" dur="2.60s" begin="1.46s" repeatCount="indefinite"/>
      <animate attributeName="y2" values="173;263" dur="2.60s" begin="1.46s" repeatCount="indefinite"/>
      <animate attributeName="x1" values="824;806" dur="2.60s" begin="1.46s" repeatCount="indefinite"/>
      <animate attributeName="x2" values="820;802" dur="2.60s" begin="1.46s" repeatCount="indefinite"/>
    </line><line class="rain" x1="132" y1="68" x2="128" y2="83" stroke="#9ad8ff" stroke-opacity=".22">
      <animate attributeName="y1" values="68;158" dur="1.76s" begin="0.10s" repeatCount="indefinite"/>
      <animate attributeName="y2" values="83;173" dur="1.76s" begin="0.10s" repeatCount="indefinite"/>
      <animate attributeName="x1" values="132;114" dur="1.76s" begin="0.10s" repeatCount="indefinite"/>
      <animate attributeName="x2" values="128;110" dur="1.76s" begin="0.10s" repeatCount="indefinite"/>
    </line><line class="rain" x1="891" y1="52" x2="887" y2="64" stroke="#9ad8ff" stroke-opacity=".22">
      <animate attributeName="y1" values="52;142" dur="2.31s" begin="1.37s" repeatCount="indefinite"/>
      <animate attributeName="y2" values="64;154" dur="2.31s" begin="1.37s" repeatCount="indefinite"/>
      <animate attributeName="x1" values="891;873" dur="2.31s" begin="1.37s" repeatCount="indefinite"/>
      <animate attributeName="x2" values="887;869" dur="2.31s" begin="1.37s" repeatCount="indefinite"/>
    </line><line class="rain" x1="329" y1="104" x2="325" y2="115" stroke="#9ad8ff" stroke-opacity=".22">
      <animate attributeName="y1" values="104;194" dur="2.49s" begin="0.28s" repeatCount="indefinite"/>
      <animate attributeName="y2" values="115;205" dur="2.49s" begin="0.28s" repeatCount="indefinite"/>
      <animate attributeName="x1" values="329;311" dur="2.49s" begin="0.28s" repeatCount="indefinite"/>
      <animate attributeName="x2" values="325;307" dur="2.49s" begin="0.28s" repeatCount="indefinite"/>
    </line><line class="rain" x1="471" y1="69" x2="467" y2="84" stroke="#9ad8ff" stroke-opacity=".22">
      <animate attributeName="y1" values="69;159" dur="2.69s" begin="0.32s" repeatCount="indefinite"/>
      <animate attributeName="y2" values="84;174" dur="2.69s" begin="0.32s" repeatCount="indefinite"/>
      <animate attributeName="x1" values="471;453" dur="2.69s" begin="0.32s" repeatCount="indefinite"/>
      <animate attributeName="x2" values="467;449" dur="2.69s" begin="0.32s" repeatCount="indefinite"/>
    </line>
<g class="plane"><g transform="translate(0 118)">
  <path d="M0 0h16l4 -2h-6l-3 -4h-2l2 4h-11z" fill="#b8c6dc"/>
  <circle class="beaconR" cx="2" cy="0" r="1.7" fill="#ff003c" filter="url(#glowS)"/>
  <circle class="beaconW" cx="18" cy="-1" r="1.3" fill="#fff" filter="url(#glowS)"/>
</g></g>
  <rect x="0" y="166" width="960" height="80" fill="url(#fog)"/>
  <polygon points="74,198 922,198 883,280 35,280" fill="url(#plateGrad)" stroke="#00e8ff" stroke-opacity=".32"/>
  <path d="M69,206H915M63,217H909M57,228H903M51,239H897M45,250H891M39,261H885" stroke="#00e8ff" stroke-opacity=".1" fill="none"/>
  <g clip-path="url(#plateClip)"><rect x="-80" y="196" width="80" height="84" fill="url(#sweep)">
    <animate attributeName="x" values="-46;962" dur="8s" repeatCount="indefinite"/>
  </rect></g>
  <path d="M76 206h11l4 -6h-11zM92 206h11l4 -6h-11zM108 206h11l4 -6h-11zM124 206h11l4 -6h-11zM140 206h11l4 -6h-11zM156 206h11l4 -6h-11zM172 206h11l4 -6h-11zM188 206h11l4 -6h-11zM204 206h11l4 -6h-11zM220 206h11l4 -6h-11zM236 206h11l4 -6h-11zM252 206h11l4 -6h-11zM268 206h11l4 -6h-11zM284 206h11l4 -6h-11zM300 206h11l4 -6h-11zM316 206h11l4 -6h-11zM332 206h11l4 -6h-11zM348 206h11l4 -6h-11zM364 206h11l4 -6h-11zM380 206h11l4 -6h-11zM396 206h11l4 -6h-11zM428 206h11l4 -6h-11zM444 206h11l4 -6h-11zM460 206h11l4 -6h-11zM476 206h11l4 -6h-11zM492 206h11l4 -6h-11zM508 206h11l4 -6h-11zM524 206h11l4 -6h-11zM540 206h11l4 -6h-11zM556 206h11l4 -6h-11zM572 206h11l4 -6h-11zM588 206h11l4 -6h-11zM604 206h11l4 -6h-11zM620 206h11l4 -6h-11zM636 206h11l4 -6h-11zM652 206h11l4 -6h-11zM668 206h11l4 -6h-11zM684 206h11l4 -6h-11zM700 206h11l4 -6h-11zM716 206h11l4 -6h-11zM732 206h11l4 -6h-11zM748 206h11l4 -6h-11zM764 206h11l4 -6h-11zM780 206h11l4 -6h-11zM796 206h11l4 -6h-11zM812 206h11l4 -6h-11zM828 206h11l4 -6h-11zM860 206h11l4 -6h-11zM892 206h11l4 -6h-11zM70 217h11l4 -6h-11zM86 217h11l4 -6h-11zM102 217h11l4 -6h-11zM118 217h11l4 -6h-11zM134 217h11l4 -6h-11zM150 217h11l4 -6h-11zM166 217h11l4 -6h-11zM182 217h11l4 -6h-11zM198 217h11l4 -6h-11zM214 217h11l4 -6h-11zM230 217h11l4 -6h-11zM246 217h11l4 -6h-11zM262 217h11l4 -6h-11zM278 217h11l4 -6h-11zM294 217h11l4 -6h-11zM310 217h11l4 -6h-11zM326 217h11l4 -6h-11zM342 217h11l4 -6h-11zM358 217h11l4 -6h-11zM374 217h11l4 -6h-11zM390 217h11l4 -6h-11zM422 217h11l4 -6h-11zM438 217h11l4 -6h-11zM454 217h11l4 -6h-11zM470 217h11l4 -6h-11zM486 217h11l4 -6h-11zM502 217h11l4 -6h-11zM518 217h11l4 -6h-11zM534 217h11l4 -6h-11zM550 217h11l4 -6h-11zM566 217h11l4 -6h-11zM582 217h11l4 -6h-11zM598 217h11l4 -6h-11zM614 217h11l4 -6h-11zM630 217h11l4 -6h-11zM646 217h11l4 -6h-11zM662 217h11l4 -6h-11zM678 217h11l4 -6h-11zM694 217h11l4 -6h-11zM710 217h11l4 -6h-11zM726 217h11l4 -6h-11zM742 217h11l4 -6h-11zM758 217h11l4 -6h-11zM774 217h11l4 -6h-11zM790 217h11l4 -6h-11zM806 217h11l4 -6h-11zM822 217h11l4 -6h-11zM838 217h11l4 -6h-11zM854 217h11l4 -6h-11zM886 217h11l4 -6h-11zM64 228h11l4 -6h-11zM80 228h11l4 -6h-11zM96 228h11l4 -6h-11zM112 228h11l4 -6h-11zM128 228h11l4 -6h-11zM144 228h11l4 -6h-11zM160 228h11l4 -6h-11zM176 228h11l4 -6h-11zM192 228h11l4 -6h-11zM208 228h11l4 -6h-11zM224 228h11l4 -6h-11zM240 228h11l4 -6h-11zM256 228h11l4 -6h-11zM272 228h11l4 -6h-11zM288 228h11l4 -6h-11zM304 228h11l4 -6h-11zM320 228h11l4 -6h-11zM336 228h11l4 -6h-11zM352 228h11l4 -6h-11zM368 228h11l4 -6h-11zM384 228h11l4 -6h-11zM416 228h11l4 -6h-11zM432 228h11l4 -6h-11zM448 228h11l4 -6h-11zM464 228h11l4 -6h-11zM480 228h11l4 -6h-11zM496 228h11l4 -6h-11zM512 228h11l4 -6h-11zM528 228h11l4 -6h-11zM544 228h11l4 -6h-11zM560 228h11l4 -6h-11zM576 228h11l4 -6h-11zM592 228h11l4 -6h-11zM608 228h11l4 -6h-11zM624 228h11l4 -6h-11zM640 228h11l4 -6h-11zM656 228h11l4 -6h-11zM672 228h11l4 -6h-11zM688 228h11l4 -6h-11zM704 228h11l4 -6h-11zM720 228h11l4 -6h-11zM736 228h11l4 -6h-11zM752 228h11l4 -6h-11zM768 228h11l4 -6h-11zM784 228h11l4 -6h-11zM800 228h11l4 -6h-11zM880 228h11l4 -6h-11zM896 228h11l4 -6h-11zM58 239h11l4 -6h-11zM74 239h11l4 -6h-11zM90 239h11l4 -6h-11zM106 239h11l4 -6h-11zM122 239h11l4 -6h-11zM138 239h11l4 -6h-11zM154 239h11l4 -6h-11zM170 239h11l4 -6h-11zM186 239h11l4 -6h-11zM202 239h11l4 -6h-11zM218 239h11l4 -6h-11zM234 239h11l4 -6h-11zM250 239h11l4 -6h-11zM266 239h11l4 -6h-11zM282 239h11l4 -6h-11zM298 239h11l4 -6h-11zM314 239h11l4 -6h-11zM330 239h11l4 -6h-11zM346 239h11l4 -6h-11zM362 239h11l4 -6h-11zM378 239h11l4 -6h-11zM394 239h11l4 -6h-11zM410 239h11l4 -6h-11zM426 239h11l4 -6h-11zM442 239h11l4 -6h-11zM458 239h11l4 -6h-11zM474 239h11l4 -6h-11zM490 239h11l4 -6h-11zM506 239h11l4 -6h-11zM522 239h11l4 -6h-11zM538 239h11l4 -6h-11zM554 239h11l4 -6h-11zM570 239h11l4 -6h-11zM586 239h11l4 -6h-11zM602 239h11l4 -6h-11zM618 239h11l4 -6h-11zM634 239h11l4 -6h-11zM650 239h11l4 -6h-11zM666 239h11l4 -6h-11zM682 239h11l4 -6h-11zM698 239h11l4 -6h-11zM714 239h11l4 -6h-11zM730 239h11l4 -6h-11zM746 239h11l4 -6h-11zM762 239h11l4 -6h-11zM778 239h11l4 -6h-11zM794 239h11l4 -6h-11zM842 239h11l4 -6h-11zM858 239h11l4 -6h-11zM52 250h11l4 -6h-11zM68 250h11l4 -6h-11zM84 250h11l4 -6h-11zM100 250h11l4 -6h-11zM116 250h11l4 -6h-11zM132 250h11l4 -6h-11zM148 250h11l4 -6h-11zM164 250h11l4 -6h-11zM196 250h11l4 -6h-11zM212 250h11l4 -6h-11zM228 250h11l4 -6h-11zM244 250h11l4 -6h-11zM260 250h11l4 -6h-11zM276 250h11l4 -6h-11zM292 250h11l4 -6h-11zM308 250h11l4 -6h-11zM324 250h11l4 -6h-11zM340 250h11l4 -6h-11zM356 250h11l4 -6h-11zM372 250h11l4 -6h-11zM388 250h11l4 -6h-11zM404 250h11l4 -6h-11zM436 250h11l4 -6h-11zM452 250h11l4 -6h-11zM468 250h11l4 -6h-11zM484 250h11l4 -6h-11zM500 250h11l4 -6h-11zM516 250h11l4 -6h-11zM532 250h11l4 -6h-11zM548 250h11l4 -6h-11zM564 250h11l4 -6h-11zM580 250h11l4 -6h-11zM596 250h11l4 -6h-11zM612 250h11l4 -6h-11zM628 250h11l4 -6h-11zM644 250h11l4 -6h-11zM660 250h11l4 -6h-11zM676 250h11l4 -6h-11zM692 250h11l4 -6h-11zM708 250h11l4 -6h-11zM724 250h11l4 -6h-11zM740 250h11l4 -6h-11zM756 250h11l4 -6h-11zM772 250h11l4 -6h-11zM788 250h11l4 -6h-11zM836 250h11l4 -6h-11zM852 250h11l4 -6h-11zM46 261h11l4 -6h-11zM62 261h11l4 -6h-11zM78 261h11l4 -6h-11zM94 261h11l4 -6h-11zM110 261h11l4 -6h-11zM126 261h11l4 -6h-11zM142 261h11l4 -6h-11zM158 261h11l4 -6h-11zM174 261h11l4 -6h-11zM190 261h11l4 -6h-11zM206 261h11l4 -6h-11zM222 261h11l4 -6h-11zM238 261h11l4 -6h-11zM254 261h11l4 -6h-11zM270 261h11l4 -6h-11zM286 261h11l4 -6h-11zM302 261h11l4 -6h-11zM318 261h11l4 -6h-11zM334 261h11l4 -6h-11zM350 261h11l4 -6h-11zM366 261h11l4 -6h-11zM382 261h11l4 -6h-11zM398 261h11l4 -6h-11zM414 261h11l4 -6h-11zM430 261h11l4 -6h-11zM446 261h11l4 -6h-11zM462 261h11l4 -6h-11zM478 261h11l4 -6h-11zM494 261h11l4 -6h-11zM510 261h11l4 -6h-11zM526 261h11l4 -6h-11zM542 261h11l4 -6h-11zM558 261h11l4 -6h-11zM574 261h11l4 -6h-11zM590 261h11l4 -6h-11zM606 261h11l4 -6h-11zM622 261h11l4 -6h-11zM638 261h11l4 -6h-11zM654 261h11l4 -6h-11zM670 261h11l4 -6h-11zM686 261h11l4 -6h-11zM702 261h11l4 -6h-11zM718 261h11l4 -6h-11zM734 261h11l4 -6h-11zM750 261h11l4 -6h-11zM766 261h11l4 -6h-11zM782 261h11l4 -6h-11zM814 261h11l4 -6h-11zM830 261h11l4 -6h-11zM846 261h11l4 -6h-11zM40 272h11l4 -6h-11zM56 272h11l4 -6h-11zM72 272h11l4 -6h-11zM88 272h11l4 -6h-11zM104 272h11l4 -6h-11zM120 272h11l4 -6h-11zM136 272h11l4 -6h-11zM152 272h11l4 -6h-11zM168 272h11l4 -6h-11zM184 272h11l4 -6h-11zM200 272h11l4 -6h-11zM216 272h11l4 -6h-11zM232 272h11l4 -6h-11zM248 272h11l4 -6h-11zM264 272h11l4 -6h-11zM280 272h11l4 -6h-11zM296 272h11l4 -6h-11zM312 272h11l4 -6h-11zM328 272h11l4 -6h-11zM344 272h11l4 -6h-11zM376 272h11l4 -6h-11zM392 272h11l4 -6h-11zM408 272h11l4 -6h-11zM424 272h11l4 -6h-11zM440 272h11l4 -6h-11zM456 272h11l4 -6h-11zM472 272h11l4 -6h-11zM488 272h11l4 -6h-11zM504 272h11l4 -6h-11zM520 272h11l4 -6h-11zM536 272h11l4 -6h-11zM552 272h11l4 -6h-11zM568 272h11l4 -6h-11zM584 272h11l4 -6h-11zM600 272h11l4 -6h-11zM616 272h11l4 -6h-11zM632 272h11l4 -6h-11zM648 272h11l4 -6h-11zM664 272h11l4 -6h-11zM680 272h11l4 -6h-11zM696 272h11l4 -6h-11zM712 272h11l4 -6h-11zM728 272h11l4 -6h-11zM744 272h11l4 -6h-11zM760 272h11l4 -6h-11zM776 272h11l4 -6h-11zM808 272h11l4 -6h-11z" fill="#0b1426" stroke="#3d4666" stroke-opacity=".45" stroke-width=".6"/>
  <rect x="412" y="207" width="11" height="6" fill="#1f6d7c" opacity=".12"/><rect x="844" y="207" width="11" height="11" fill="#1f6d7c" opacity=".12"/><rect x="876" y="207" width="11" height="26" fill="#fcee0a" opacity=".12"/><rect x="908" y="207" width="11" height="15" fill="#00b4cc" opacity=".12"/><rect x="406" y="218" width="11" height="6" fill="#1f6d7c" opacity=".12"/><rect x="870" y="218" width="11" height="6" fill="#1f6d7c" opacity=".12"/><rect x="902" y="218" width="11" height="18" fill="#00b4cc" opacity=".12"/><rect x="400" y="229" width="11" height="6" fill="#1f6d7c" opacity=".12"/><rect x="816" y="229" width="11" height="6" fill="#1f6d7c" opacity=".12"/><rect x="832" y="229" width="11" height="9" fill="#1f6d7c" opacity=".12"/><rect x="848" y="229" width="11" height="9" fill="#1f6d7c" opacity=".12"/><rect x="864" y="229" width="11" height="12" fill="#1f6d7c" opacity=".12"/><rect x="810" y="240" width="11" height="7" fill="#1f6d7c" opacity=".12"/><rect x="826" y="240" width="11" height="12" fill="#1f6d7c" opacity=".12"/><rect x="874" y="240" width="11" height="6" fill="#1f6d7c" opacity=".12"/><rect x="890" y="240" width="11" height="9" fill="#1f6d7c" opacity=".12"/><rect x="180" y="251" width="11" height="6" fill="#1f6d7c" opacity=".12"/><rect x="420" y="251" width="11" height="6" fill="#1f6d7c" opacity=".12"/><rect x="804" y="251" width="11" height="8" fill="#1f6d7c" opacity=".12"/><rect x="820" y="251" width="11" height="7" fill="#1f6d7c" opacity=".12"/><rect x="868" y="251" width="11" height="13" fill="#1f6d7c" opacity=".12"/><rect x="798" y="262" width="11" height="12" fill="#1f6d7c" opacity=".12"/><rect x="862" y="262" width="11" height="14" fill="#00b4cc" opacity=".12"/><rect x="360" y="273" width="11" height="8" fill="#1f6d7c" opacity=".12"/><rect x="792" y="273" width="11" height="11" fill="#1f6d7c" opacity=".12"/><rect x="824" y="273" width="11" height="14" fill="#00b4cc" opacity=".12"/><rect x="840" y="273" width="11" height="6" fill="#1f6d7c" opacity=".12"/><rect x="856" y="273" width="11" height="12" fill="#1f6d7c" opacity=".12"/>
  <rect fill="#0a1824" x="412" y="181" width="11" height="25"/><path fill="#07101a" d="M423 206l4 -6v-25l-4 6z"/><path fill="#1f6d7c" d="M412 181h11l4 -6h-11z"/><path fill="#7df9ff" opacity=".9" d="M414 192h3v3h-3zM418 186h3v3h-3z"/>
  <rect fill="#0a1824" x="844" y="156" width="11" height="50"/><path fill="#07101a" d="M855 206l4 -6v-50l-4 6z"/><path fill="#1f6d7c" d="M844 156h11l4 -6h-11z"/><path fill="#ffd86b" opacity=".9" d="M846 198h3v3h-3zM846 192h3v3h-3zM850 192h3v3h-3zM850 186h3v3h-3zM846 180h3v3h-3zM850 180h3v3h-3zM846 168h3v3h-3zM846 162h3v3h-3z"/>
  <rect fill="#3a2208" x="876" y="88" width="11" height="118"/><path fill="#261606" d="M887 206l4 -6v-118l-4 6z"/><path fill="#fcee0a" filter="url(#glowS)" d="M876 88h11l4 -6h-11z"/><path fill="#ff8aea" opacity=".9" d="M882 168h3v3h-3zM882 156h3v3h-3zM882 138h3v3h-3zM878 114h3v3h-3zM882 114h3v3h-3zM882 102h3v3h-3zM878 96h3v3h-3z"/><rect class="fl3" fill="#ff8aea" x="878" y="192" width="3" height="3"/><rect class="fl3" fill="#ff8aea" x="882" y="186" width="3" height="3"/><rect class="fl1" fill="#ff8aea" x="882" y="108" width="3" height="3"/>
  <rect fill="#0c2438" x="908" y="139" width="11" height="67"/><path fill="#081828" d="M919 206l4 -6v-67l-4 6z"/><path fill="#00b4cc" d="M908 139h11l4 -6h-11z"/><path fill="#ff8aea" opacity=".9" d="M914 198h3v3h-3zM914 192h3v3h-3zM910 186h3v3h-3zM914 186h3v3h-3zM910 180h3v3h-3zM914 180h3v3h-3zM910 168h3v3h-3zM910 156h3v3h-3zM910 150h3v3h-3zM914 150h3v3h-3zM914 144h3v3h-3z"/>
  <rect fill="#0a1824" x="406" y="192" width="11" height="25"/><path fill="#07101a" d="M417 217l4 -6v-25l-4 6z"/><path fill="#1f6d7c" d="M406 192h11l4 -6h-11z"/><path fill="#ff8aea" opacity=".9" d="M408 203h3v3h-3zM408 197h3v3h-3zM412 197h3v3h-3z"/>
  <rect fill="#0a1824" x="870" y="192" width="11" height="25"/><path fill="#07101a" d="M881 217l4 -6v-25l-4 6z"/><path fill="#1f6d7c" d="M870 192h11l4 -6h-11z"/><path fill="#ff8aea" opacity=".9" d="M876 197h3v3h-3z"/><rect class="fl3" fill="#ff8aea" x="872" y="203" width="3" height="3"/>
  <rect fill="#0c2438" x="902" y="137" width="11" height="80"/><path fill="#081828" d="M913 217l4 -6v-80l-4 6z"/><path fill="#00b4cc" d="M902 137h11l4 -6h-11z"/><path fill="#ff8aea" opacity=".9" d="M904 209h3v3h-3zM908 209h3v3h-3zM908 203h3v3h-3zM904 197h3v3h-3zM904 191h3v3h-3zM908 173h3v3h-3zM904 167h3v3h-3zM904 161h3v3h-3zM904 149h3v3h-3zM908 149h3v3h-3z"/><rect class="fl2" fill="#ff8aea" x="908" y="197" width="3" height="3"/>
  <rect fill="#0a1824" x="400" y="203" width="11" height="25"/><path fill="#07101a" d="M411 228l4 -6v-25l-4 6z"/><path fill="#1f6d7c" d="M400 203h11l4 -6h-11z"/><path fill="#ff8aea" opacity=".9" d="M406 214h3v3h-3zM406 208h3v3h-3z"/>
  <rect fill="#0a1824" x="816" y="203" width="11" height="25"/><path fill="#07101a" d="M827 228l4 -6v-25l-4 6z"/><path fill="#1f6d7c" d="M816 203h11l4 -6h-11z"/><path fill="#ff8aea" opacity=".9" d="M818 214h3v3h-3zM822 214h3v3h-3z"/>
  <rect fill="#0a1824" x="832" y="186" width="11" height="42"/><path fill="#07101a" d="M843 228l4 -6v-42l-4 6z"/><path fill="#1f6d7c" d="M832 186h11l4 -6h-11z"/><path fill="#ffd86b" opacity=".9" d="M838 220h3v3h-3zM834 214h3v3h-3zM838 208h3v3h-3zM834 202h3v3h-3zM838 202h3v3h-3zM838 196h3v3h-3zM838 190h3v3h-3z"/>
  <rect fill="#0a1824" x="848" y="186" width="11" height="42"/><path fill="#07101a" d="M859 228l4 -6v-42l-4 6z"/><path fill="#1f6d7c" d="M848 186h11l4 -6h-11z"/><path fill="#ff8aea" opacity=".9" d="M850 220h3v3h-3zM850 214h3v3h-3zM854 202h3v3h-3zM854 196h3v3h-3zM850 190h3v3h-3zM854 190h3v3h-3z"/>
  <rect fill="#0a1824" x="864" y="175" width="11" height="53"/><path fill="#07101a" d="M875 228l4 -6v-53l-4 6z"/><path fill="#1f6d7c" d="M864 175h11l4 -6h-11z"/><path fill="#ffd86b" opacity=".9" d="M870 220h3v3h-3zM866 202h3v3h-3zM870 202h3v3h-3zM870 196h3v3h-3zM866 190h3v3h-3zM870 190h3v3h-3z"/>
  <rect fill="#0a1824" x="810" y="207" width="11" height="32"/><path fill="#07101a" d="M821 239l4 -6v-32l-4 6z"/><path fill="#1f6d7c" d="M810 207h11l4 -6h-11z"/><path fill="#ffd86b" opacity=".9" d="M812 231h3v3h-3zM816 231h3v3h-3zM816 219h3v3h-3zM816 213h3v3h-3z"/>
  <rect fill="#0a1824" x="826" y="186" width="11" height="53"/><path fill="#07101a" d="M837 239l4 -6v-53l-4 6z"/><path fill="#1f6d7c" d="M826 186h11l4 -6h-11z"/><path fill="#7df9ff" opacity=".9" d="M828 231h3v3h-3zM832 231h3v3h-3zM832 225h3v3h-3zM828 219h3v3h-3zM832 213h3v3h-3zM828 207h3v3h-3zM832 207h3v3h-3zM828 201h3v3h-3zM832 201h3v3h-3z"/>
  <rect fill="#0a1824" x="874" y="214" width="11" height="25"/><path fill="#07101a" d="M885 239l4 -6v-25l-4 6z"/><path fill="#1f6d7c" d="M874 214h11l4 -6h-11z"/><path fill="#7df9ff" opacity=".9" d="M880 231h3v3h-3zM876 225h3v3h-3zM880 225h3v3h-3zM880 219h3v3h-3z"/>
  <rect fill="#0a1824" x="890" y="197" width="11" height="42"/><path fill="#07101a" d="M901 239l4 -6v-42l-4 6z"/><path fill="#1f6d7c" d="M890 197h11l4 -6h-11z"/><path fill="#ff8aea" opacity=".9" d="M892 231h3v3h-3zM896 231h3v3h-3zM896 225h3v3h-3zM896 219h3v3h-3zM892 213h3v3h-3zM896 213h3v3h-3zM896 207h3v3h-3zM892 201h3v3h-3z"/>
  <rect fill="#0a1824" x="180" y="225" width="11" height="25"/><path fill="#07101a" d="M191 250l4 -6v-25l-4 6z"/><path fill="#1f6d7c" d="M180 225h11l4 -6h-11z"/><path fill="#ff8aea" opacity=".9" d="M182 242h3v3h-3zM186 236h3v3h-3z"/><rect class="fl2" fill="#ff8aea" x="186" y="242" width="3" height="3"/><rect class="fl2" fill="#ff8aea" x="182" y="236" width="3" height="3"/>
  <rect fill="#0a1824" x="420" y="225" width="11" height="25"/><path fill="#07101a" d="M431 250l4 -6v-25l-4 6z"/><path fill="#1f6d7c" d="M420 225h11l4 -6h-11z"/><path fill="#ff8aea" opacity=".9" d="M422 242h3v3h-3zM422 236h3v3h-3zM422 230h3v3h-3zM426 230h3v3h-3z"/>
  <rect fill="#0a1824" x="804" y="213" width="11" height="37"/><path fill="#07101a" d="M815 250l4 -6v-37l-4 6z"/><path fill="#1f6d7c" d="M804 213h11l4 -6h-11z"/><path fill="#ffd86b" opacity=".9" d="M806 242h3v3h-3zM810 218h3v3h-3z"/><rect class="fl3" fill="#ffd86b" x="806" y="236" width="3" height="3"/>
  <rect fill="#0a1824" x="820" y="218" width="11" height="32"/><path fill="#07101a" d="M831 250l4 -6v-32l-4 6z"/><path fill="#1f6d7c" d="M820 218h11l4 -6h-11z"/><path fill="#ff8aea" opacity=".9" d="M822 242h3v3h-3zM826 242h3v3h-3zM826 236h3v3h-3zM822 230h3v3h-3zM822 224h3v3h-3zM826 224h3v3h-3z"/>
  <rect fill="#0a1824" x="868" y="191" width="11" height="59"/><path fill="#07101a" d="M879 250l4 -6v-59l-4 6z"/><path fill="#1f6d7c" d="M868 191h11l4 -6h-11z"/><path fill="#7df9ff" opacity=".9" d="M870 242h3v3h-3zM874 236h3v3h-3zM870 224h3v3h-3zM870 212h3v3h-3zM870 206h3v3h-3zM870 200h3v3h-3z"/><rect class="fl2" fill="#7df9ff" x="874" y="242" width="3" height="3"/><rect class="fl1" fill="#7df9ff" x="874" y="224" width="3" height="3"/><rect class="fl3" fill="#7df9ff" x="874" y="206" width="3" height="3"/><rect class="fl2" fill="#7df9ff" x="874" y="200" width="3" height="3"/>
  <rect fill="#0a1824" x="798" y="208" width="11" height="53"/><path fill="#07101a" d="M809 261l4 -6v-53l-4 6z"/><path fill="#1f6d7c" d="M798 208h11l4 -6h-11z"/><path fill="#ffd86b" opacity=".9" d="M804 253h3v3h-3zM800 241h3v3h-3zM800 235h3v3h-3zM800 229h3v3h-3zM804 229h3v3h-3zM800 217h3v3h-3zM804 217h3v3h-3z"/>
  <rect fill="#0c2438" x="862" y="199" width="11" height="62"/><path fill="#081828" d="M873 261l4 -6v-62l-4 6z"/><path fill="#00b4cc" d="M862 199h11l4 -6h-11z"/><path fill="#7df9ff" opacity=".9" d="M864 253h3v3h-3zM868 247h3v3h-3zM868 241h3v3h-3zM868 229h3v3h-3zM864 217h3v3h-3zM868 211h3v3h-3zM868 205h3v3h-3z"/>
  <rect fill="#0a1824" x="360" y="235" width="11" height="37"/><path fill="#07101a" d="M371 272l4 -6v-37l-4 6z"/><path fill="#1f6d7c" d="M360 235h11l4 -6h-11z"/><path fill="#7df9ff" opacity=".9" d="M366 264h3v3h-3zM362 258h3v3h-3zM366 258h3v3h-3zM362 252h3v3h-3zM366 252h3v3h-3zM366 246h3v3h-3zM366 240h3v3h-3z"/><rect class="fl1" fill="#7df9ff" x="362" y="264" width="3" height="3"/><rect class="fl3" fill="#7df9ff" x="362" y="246" width="3" height="3"/>
  <rect fill="#0a1824" x="792" y="222" width="11" height="50"/><path fill="#07101a" d="M803 272l4 -6v-50l-4 6z"/><path fill="#1f6d7c" d="M792 222h11l4 -6h-11z"/><path fill="#ffd86b" opacity=".9" d="M794 264h3v3h-3zM798 264h3v3h-3zM798 258h3v3h-3zM798 252h3v3h-3zM798 246h3v3h-3zM798 240h3v3h-3zM798 234h3v3h-3zM798 228h3v3h-3z"/>
  <rect fill="#0c2438" x="824" y="208" width="11" height="64"/><path fill="#081828" d="M835 272l4 -6v-64l-4 6z"/><path fill="#00b4cc" d="M824 208h11l4 -6h-11z"/><path fill="#7df9ff" opacity=".9" d="M830 264h3v3h-3zM826 258h3v3h-3zM826 252h3v3h-3zM830 252h3v3h-3zM826 240h3v3h-3zM830 234h3v3h-3zM826 228h3v3h-3zM830 228h3v3h-3zM830 222h3v3h-3zM830 216h3v3h-3z"/>
  <rect fill="#0a1824" x="840" y="247" width="11" height="25"/><path fill="#07101a" d="M851 272l4 -6v-25l-4 6z"/><path fill="#1f6d7c" d="M840 247h11l4 -6h-11z"/><path fill="#7df9ff" opacity=".9" d="M846 264h3v3h-3z"/><rect class="fl3" fill="#7df9ff" x="842" y="258" width="3" height="3"/><rect class="fl1" fill="#7df9ff" x="842" y="252" width="3" height="3"/>
  <rect fill="#0a1824" x="856" y="219" width="11" height="53"/><path fill="#07101a" d="M867 272l4 -6v-53l-4 6z"/><path fill="#1f6d7c" d="M856 219h11l4 -6h-11z"/><path fill="#7df9ff" opacity=".9" d="M858 264h3v3h-3zM862 264h3v3h-3zM862 258h3v3h-3zM858 252h3v3h-3zM858 246h3v3h-3zM858 234h3v3h-3zM862 228h3v3h-3z"/>
  <path d="M882.5 86v-10" stroke="#c5d0e0" stroke-width="1"/><rect x="877.5" y="79" width="10" height="3" fill="#fcee0a" opacity=".85" filter="url(#glowS)"/><circle class="beacon b1" cx="882.5" cy="75" r="1.7" fill="#ff003c" filter="url(#glowS)"/>
  <text x="40" y="300" font-size="11" fill="#eaf4ff" opacity=".75">OCT</text><path d="M41 283v5" stroke="#00e8ff" stroke-opacity=".5"/><text x="104" y="300" font-size="11" fill="#eaf4ff" opacity=".75">NOV</text><path d="M105 283v5" stroke="#00e8ff" stroke-opacity=".5"/><text x="184" y="300" font-size="11" fill="#eaf4ff" opacity=".75">DEC</text><path d="M185 283v5" stroke="#00e8ff" stroke-opacity=".5"/><text x="248" y="300" font-size="11" fill="#eaf4ff" opacity=".75">JAN</text><path d="M249 283v5" stroke="#00e8ff" stroke-opacity=".5"/><text x="312" y="300" font-size="11" fill="#eaf4ff" opacity=".75">FEB</text><path d="M313 283v5" stroke="#00e8ff" stroke-opacity=".5"/><text x="376" y="300" font-size="11" fill="#eaf4ff" opacity=".75">MAR</text><path d="M377 283v5" stroke="#00e8ff" stroke-opacity=".5"/><text x="456" y="300" font-size="11" fill="#eaf4ff" opacity=".75">APR</text><path d="M457 283v5" stroke="#00e8ff" stroke-opacity=".5"/><text x="520" y="300" font-size="11" fill="#eaf4ff" opacity=".75">MAY</text><path d="M521 283v5" stroke="#00e8ff" stroke-opacity=".5"/><text x="600" y="300" font-size="11" fill="#eaf4ff" opacity=".75">JUN</text><path d="M601 283v5" stroke="#00e8ff" stroke-opacity=".5"/><text x="664" y="300" font-size="11" fill="#eaf4ff" opacity=".75">JUL</text><path d="M665 283v5" stroke="#00e8ff" stroke-opacity=".5"/><text x="728" y="300" font-size="11" fill="#eaf4ff" opacity=".75">AUG</text><path d="M729 283v5" stroke="#00e8ff" stroke-opacity=".5"/><text x="808" y="300" font-size="11" fill="#eaf4ff" opacity=".75">SEP</text><path d="M809 283v5" stroke="#00e8ff" stroke-opacity=".5"/><text x="872" y="300" font-size="11" fill="#eaf4ff" opacity=".75">OCT</text><path d="M873 283v5" stroke="#00e8ff" stroke-opacity=".5"/>
  <g>
<text x="40" y="40" font-size="12" fill="#8a93b5">02 //</text>
<text x="86" y="40" font-size="15" font-weight="700" fill="#fcee0a" filter="url(#glowS)">CONTRIBUTION_CITY</text>
<text x="920" y="40" font-size="11" fill="#8a93b5" text-anchor="end">LAST 53 WEEKS  //  qormsxo</text>
<path d="M40 52H920" stroke="#00e8ff" stroke-width="1" opacity=".22"/>
<path d="M40 52H172" stroke="#fcee0a" stroke-width="2" filter="url(#glowS)"/>
</g>
  <text x="40" y="344" font-size="11" fill="#3d4666">1 BUILDING = 1 DAY  //  TALLER = MORE COMMITS  //  28 LIT BLOCKS  //  FIRST LIGHT 2025-12-04</text>
  <text x="40" y="372" font-size="11" fill="#8a93b5">LOW</text><rect x="72" y="363" width="11" height="11" fill="#1f6d7c"/><rect x="88" y="363" width="11" height="11" fill="#00b4cc"/><rect x="104" y="363" width="11" height="11" fill="#00e8ff" filter="url(#glowS)"/><rect x="120" y="363" width="11" height="11" fill="#fcee0a" filter="url(#glowS)"/><text x="142" y="372" font-size="11" fill="#8a93b5">PEAK</text><path d="M196 363h11l4 -4h-11z" fill="#0b1426" stroke="#3d4666"/><text x="222" y="372" font-size="11" fill="#8a93b5">EMPTY LOT</text>
  <text x="920" y="372" font-size="11" fill="#fcee0a" text-anchor="end">PEAK 200 @ 2024-05-30</text>
  <rect width="960" height="400" fill="url(#scan)" pointer-events="none"/>
<rect width="960" height="400" fill="url(#vignette)" pointer-events="none"/>
</g>
<g fill="none">
<path d="M7 -40V440M953 -40V440" stroke="#00e8ff" stroke-width="1" opacity=".16"/>
<path d="M1 20h10M959 20h-10M1 60h10M959 60h-10M1 100h10M959 100h-10M1 140h10M959 140h-10M1 180h10M959 180h-10M1 220h10M959 220h-10M1 260h10M959 260h-10M1 300h10M959 300h-10M1 340h10M959 340h-10M1 380h10M959 380h-10" stroke="#fcee0a" stroke-width="1" opacity=".35"/>
<path d="M1 -40V440M959 -40V440" stroke="#00e8ff" stroke-width="2" filter="url(#glow)"/>
</g>
</svg>
